<?xml version="1.0" encoding="iso-8859-1"?><!-- Generator: Adobe Illustrator 16.0.0, SVG Export Plug-In . SVG Version: 6.00 Build 0) --><!DOCTYPE svg PUBLIC "-//W3C//DTD SVG 1.1//EN" "http://www.w3.org/Graphics/SVG/1.1/DTD/svg11.dtd"><svg version="1.1" id="Layer_1" xmlns="http://www.w3.org/2000/svg" xmlns:xlink="http://www.w3.org/1999/xlink" x="0px" y="0px" width="141.732px" height="141.732px" viewBox="0 0 141.732 141.732" style="enable-background:new 0 0 141.732 141.732;" xml:space="preserve"><g><g><polygon style="fill:#2566AF;" points="62.935,89.571 53.202,89.571 59.285,52.187 69.019,52.187	"/><path style="fill:#2566AF;" d="M45.014,52.187L35.735,77.9l-1.098-5.537l0.001,0.002l-3.275-16.812c0,0-0.396-3.366-4.617-3.366	h-15.34l-0.18,0.633c0,0,4.691,0.976,10.181,4.273l8.456,32.479h10.141l15.485-37.385H45.014z"/><path style="fill:#2566AF;" d="M121.569,89.571h8.937l-7.792-37.385h-7.824c-3.613,0-4.493,2.786-4.493,2.786L95.881,89.571	h10.146l2.029-5.553h12.373L121.569,89.571z M110.859,76.347l5.114-13.99l2.877,13.99H110.859z"/><path style="fill:#2566AF;" d="M96.642,61.177l1.389-8.028c0,0-4.286-1.63-8.754-1.63c-4.83,0-16.3,2.111-16.3,12.376	c0,9.658,13.462,9.778,13.462,14.851s-12.075,4.164-16.06,0.965l-1.447,8.394c0,0,4.346,2.111,10.986,2.111	c6.642,0,16.662-3.439,16.662-12.799c0-9.72-13.583-10.625-13.583-14.851C82.998,58.339,92.477,58.882,96.642,61.177z"/></g><path style="fill:#E6A540;" d="M34.638,72.364l-3.275-16.812c0,0-0.396-3.366-4.617-3.366h-15.34l-0.18,0.633	c0,0,7.373,1.528,14.445,7.253C32.433,65.544,34.638,72.364,34.638,72.364z"/></g><rect x="0" y="0" style="fill:none;" width="141.732" height="141.732"/></svg>